<svg id="svg" version="1.1" width="400" height="400" xmlns="http://www.w3.org/2000/svg" xmlns:xlink="http://www.w3.org/1999/xlink" style="display: block;"><g id="svgg"><path id="path0" d="" stroke="none" fill="#000000" fill-rule="evenodd"></path><path id="path1" d="M52.267 61.067 C 52.120 61.213,52.000 122.486,52.000 197.227 L 52.000 333.121 53.400 333.947 C 54.170 334.401,54.800 335.044,54.800 335.376 C 54.800 335.708,55.348 336.263,56.017 336.609 C 56.687 336.955,57.427 337.660,57.661 338.175 C 57.896 338.690,58.521 339.309,59.050 339.550 C 59.579 339.791,60.209 340.421,60.450 340.950 C 60.691 341.479,61.310 342.104,61.825 342.339 C 62.340 342.573,63.045 343.313,63.391 343.983 C 63.737 344.652,64.289 345.200,64.616 345.200 C 64.944 345.200,65.552 345.760,65.969 346.445 C 66.385 347.129,67.147 347.899,67.663 348.156 C 68.178 348.413,68.835 349.113,69.122 349.712 L 69.644 350.800 96.942 350.800 C 117.640 350.800,124.356 350.684,124.720 350.320 C 125.090 349.950,125.200 331.472,125.200 269.582 C 125.200 192.337,125.227 189.299,125.931 188.662 C 127.025 187.672,127.925 187.857,128.769 189.245 C 129.185 189.929,129.944 190.698,130.455 190.952 C 130.966 191.207,131.593 191.834,131.848 192.345 C 132.102 192.856,132.871 193.615,133.555 194.031 C 134.240 194.448,134.800 195.056,134.800 195.384 C 134.800 195.711,135.348 196.263,136.017 196.609 C 136.687 196.955,137.427 197.660,137.661 198.175 C 137.896 198.690,138.521 199.309,139.050 199.550 C 139.579 199.791,140.209 200.421,140.450 200.950 C 140.691 201.479,141.310 202.104,141.825 202.339 C 142.340 202.573,143.045 203.313,143.391 203.983 L 144.021 205.200 153.188 205.200 C 162.207 205.200,162.365 205.214,162.977 206.089 C 163.535 206.884,163.600 213.615,163.600 270.079 L 163.600 333.179 164.722 333.760 C 165.339 334.079,166.048 334.788,166.298 335.335 C 166.547 335.883,167.109 336.444,167.547 336.583 C 167.984 336.722,168.709 337.457,169.157 338.218 C 169.606 338.978,170.244 339.600,170.576 339.600 C 170.908 339.600,171.463 340.148,171.809 340.817 C 172.155 341.487,172.860 342.227,173.375 342.461 C 173.890 342.696,174.509 343.321,174.750 343.850 C 174.991 344.379,175.637 345.016,176.186 345.267 C 176.735 345.517,177.294 346.067,177.428 346.488 C 177.562 346.910,178.215 347.586,178.880 347.990 C 179.545 348.395,180.299 349.147,180.556 349.663 L 181.024 350.600 207.212 350.600 L 233.400 350.600 233.600 278.561 C 233.767 218.308,233.890 206.415,234.349 205.861 C 235.237 204.791,270.366 204.858,271.338 205.931 C 271.948 206.606,272.000 211.618,272.000 269.892 L 272.000 333.121 273.400 333.947 C 274.170 334.401,274.800 335.044,274.800 335.376 C 274.800 335.708,275.348 336.263,276.017 336.609 C 276.687 336.955,277.427 337.660,277.661 338.175 C 277.896 338.690,278.521 339.309,279.050 339.550 C 279.579 339.791,280.209 340.421,280.450 340.950 C 280.691 341.479,281.310 342.104,281.825 342.339 C 282.340 342.573,283.045 343.313,283.391 343.983 C 283.737 344.652,284.289 345.200,284.616 345.200 C 284.944 345.200,285.552 345.760,285.969 346.445 C 286.385 347.129,287.147 347.899,287.663 348.156 C 288.178 348.413,288.835 349.113,289.122 349.712 L 289.644 350.800 315.542 350.800 C 335.152 350.800,341.557 350.683,341.920 350.320 C 342.433 349.807,342.655 84.376,342.146 80.141 C 341.947 78.488,341.710 77.996,340.943 77.647 C 340.418 77.408,339.791 76.779,339.550 76.250 C 339.309 75.721,338.690 75.096,338.175 74.861 C 337.660 74.627,336.955 73.887,336.609 73.217 C 336.263 72.548,335.711 72.000,335.384 72.000 C 335.056 72.000,334.448 71.440,334.031 70.755 C 333.615 70.071,332.856 69.302,332.345 69.048 C 331.834 68.793,331.207 68.166,330.952 67.655 C 330.698 67.144,329.929 66.385,329.245 65.969 C 328.560 65.552,328.000 64.944,328.000 64.616 C 328.000 64.289,327.452 63.737,326.783 63.391 C 326.113 63.045,325.397 62.319,325.192 61.778 L 324.817 60.794 299.909 60.897 L 275.000 61.000 274.800 78.800 C 274.690 88.590,274.454 96.825,274.276 97.100 C 274.026 97.488,269.974 97.600,256.256 97.600 C 243.026 97.600,238.439 97.721,238.080 98.080 C 237.721 98.439,237.600 103.026,237.600 116.256 C 237.600 129.974,237.488 134.026,237.100 134.276 C 236.825 134.454,228.590 134.690,218.800 134.800 L 201.000 135.000 200.800 152.933 C 200.572 173.403,200.855 172.000,196.946 172.000 C 193.587 172.000,193.600 172.050,193.597 160.011 L 193.595 149.800 192.397 149.119 C 191.739 148.744,190.991 147.979,190.736 147.419 C 190.480 146.858,190.104 146.400,189.900 146.400 C 189.408 146.400,179.796 136.714,179.220 135.638 C 178.785 134.825,178.500 134.800,169.609 134.800 C 158.073 134.800,159.200 135.951,159.200 124.175 L 159.200 115.328 158.194 114.870 C 157.641 114.618,156.984 113.963,156.733 113.414 C 156.483 112.865,155.933 112.306,155.512 112.172 C 155.090 112.038,154.414 111.385,154.010 110.720 C 153.605 110.055,152.856 109.302,152.345 109.048 C 151.834 108.793,151.207 108.166,150.952 107.655 C 150.698 107.144,149.929 106.385,149.245 105.969 C 148.560 105.552,148.000 104.957,148.000 104.645 C 148.000 104.334,147.370 103.707,146.600 103.253 C 145.830 102.799,145.200 102.156,145.200 101.824 C 145.200 101.492,144.670 100.947,144.022 100.612 C 143.375 100.277,142.608 99.507,142.317 98.901 L 141.790 97.800 132.627 97.692 C 126.767 97.623,123.274 97.428,122.939 97.149 C 122.540 96.818,122.389 94.500,122.307 87.462 L 122.200 78.210 121.099 77.683 C 120.493 77.392,119.723 76.625,119.388 75.978 C 119.053 75.330,118.508 74.800,118.176 74.800 C 117.844 74.800,117.201 74.170,116.747 73.400 C 116.293 72.630,115.663 72.000,115.347 72.000 C 115.031 72.000,114.418 71.398,113.984 70.663 C 113.550 69.928,112.762 69.129,112.232 68.888 C 111.703 68.646,111.156 68.091,111.017 67.653 C 110.878 67.216,110.143 66.491,109.382 66.043 C 108.622 65.594,108.000 64.956,108.000 64.624 C 108.000 64.292,107.452 63.737,106.783 63.391 C 106.113 63.045,105.398 62.320,105.193 61.781 L 104.820 60.800 78.677 60.800 C 64.298 60.800,52.413 60.920,52.267 61.067 M99.824 68.567 C 100.567 69.111,100.609 69.901,100.800 87.067 L 101.000 105.000 117.515 105.200 C 131.610 105.371,134.085 105.488,134.409 106.000 C 134.632 106.354,134.790 113.750,134.794 124.020 C 134.798 137.029,134.922 141.562,135.280 141.920 C 135.638 142.278,140.171 142.402,153.180 142.406 C 163.451 142.410,170.846 142.568,171.200 142.791 C 171.714 143.116,171.829 145.745,172.000 161.085 L 172.200 179.000 190.000 179.000 L 207.800 179.000 208.000 161.085 C 208.171 145.745,208.286 143.116,208.800 142.791 C 209.154 142.568,216.549 142.410,226.820 142.406 C 239.829 142.402,244.362 142.278,244.720 141.920 C 245.079 141.561,245.200 137.020,245.200 123.949 C 245.200 108.581,245.276 106.381,245.829 105.829 C 246.381 105.276,248.581 105.200,263.949 105.200 C 277.020 105.200,281.561 105.079,281.920 104.720 C 282.279 104.361,282.400 99.820,282.400 86.749 C 282.400 71.381,282.476 69.181,283.029 68.629 C 283.928 67.729,318.598 67.672,319.824 68.568 C 320.589 69.127,320.601 70.948,320.702 196.711 L 320.804 324.287 319.973 325.344 L 319.142 326.400 301.660 326.400 C 286.485 326.400,284.061 326.318,283.289 325.777 L 282.400 325.155 282.400 234.826 C 282.400 158.980,282.312 144.425,281.854 144.045 C 281.461 143.719,276.433 143.621,263.954 143.696 L 246.600 143.800 246.496 161.442 C 246.394 178.772,246.377 179.097,245.554 179.842 C 244.766 180.555,243.675 180.612,227.058 180.800 L 209.400 181.000 209.200 253.132 C 209.004 323.954,208.986 325.275,208.224 325.832 C 207.070 326.675,172.930 326.675,171.776 325.832 C 171.014 325.275,170.996 323.954,170.800 253.132 L 170.600 181.000 152.942 180.800 C 136.325 180.612,135.234 180.555,134.446 179.842 C 133.623 179.097,133.606 178.772,133.504 161.442 L 133.400 143.800 117.200 143.800 L 101.000 143.800 100.800 234.258 C 100.605 322.502,100.581 324.737,99.838 325.558 C 98.808 326.696,64.891 326.900,63.289 325.777 L 62.400 325.155 62.400 197.206 C 62.400 81.422,62.460 69.197,63.029 68.629 C 63.928 67.729,98.598 67.672,99.824 68.567 " stroke="none" fill="#ffffff" fill-rule="evenodd"></path><path id="path2" d="M38.574 5.800 L 38.311 7.200 34.155 7.200 L 30.000 7.200 30.000 8.600 L 30.000 10.000 27.200 10.000 L 24.400 10.000 24.400 11.400 C 24.400 12.733,24.333 12.800,23.000 12.800 C 21.672 12.800,21.600 12.870,21.600 14.175 C 21.600 15.430,21.488 15.560,20.313 15.675 C 19.257 15.777,18.961 16.026,18.668 17.055 C 18.403 17.983,17.983 18.403,17.055 18.668 C 16.026 18.961,15.777 19.257,15.675 20.313 C 15.560 21.488,15.430 21.600,14.175 21.600 C 12.870 21.600,12.800 21.672,12.800 23.000 C 12.800 24.333,12.733 24.400,11.400 24.400 C 10.067 24.400,10.000 24.467,10.000 25.800 C 10.000 27.133,9.933 27.200,8.600 27.200 L 7.200 27.200 7.200 29.975 L 7.200 32.749 5.900 32.875 L 4.600 33.000 4.486 37.300 L 4.373 41.600 2.986 41.600 L 1.600 41.600 1.600 200.000 L 1.600 358.400 2.986 358.400 L 4.373 358.400 4.486 362.700 L 4.600 367.000 5.900 367.125 L 7.200 367.251 7.200 370.025 L 7.200 372.800 8.600 372.800 C 9.933 372.800,10.000 372.867,10.000 374.200 C 10.000 375.533,10.067 375.600,11.400 375.600 C 12.733 375.600,12.800 375.667,12.800 377.000 C 12.800 378.328,12.870 378.400,14.175 378.400 C 15.430 378.400,15.560 378.512,15.675 379.687 C 15.777 380.743,16.026 381.039,17.055 381.332 C 17.983 381.597,18.403 382.017,18.668 382.945 C 18.961 383.974,19.257 384.223,20.313 384.325 C 21.488 384.440,21.600 384.570,21.600 385.825 C 21.600 387.130,21.672 387.200,23.000 387.200 C 24.333 387.200,24.400 387.267,24.400 388.600 L 24.400 390.000 27.200 390.000 L 30.000 390.000 30.000 391.400 L 30.000 392.800 34.155 392.800 L 38.311 392.800 38.574 394.200 L 38.836 395.600 200.000 395.600 L 361.164 395.600 361.426 394.200 L 361.689 392.800 365.845 392.800 L 370.000 392.800 370.000 391.400 L 370.000 390.000 372.800 390.000 L 375.600 390.000 375.600 388.600 C 375.600 387.267,375.667 387.200,377.000 387.200 C 378.328 387.200,378.400 387.130,378.400 385.825 C 378.400 384.570,378.512 384.440,379.687 384.325 C 380.743 384.223,381.039 383.974,381.332 382.945 C 381.597 382.017,382.017 381.597,382.945 381.332 C 383.974 381.039,384.223 380.743,384.325 379.687 C 384.440 378.512,384.570 378.400,385.825 378.400 C 387.130 378.400,387.200 378.328,387.200 377.000 C 387.200 375.667,387.267 375.600,388.600 375.600 C 389.933 375.600,390.000 375.533,390.000 374.200 C 390.000 372.867,390.067 372.800,391.400 372.800 L 392.800 372.800 392.800 370.025 L 392.800 367.251 394.100 367.125 L 395.400 367.000 395.514 362.700 L 395.627 358.400 397.014 358.400 L 398.400 358.400 398.400 200.000 L 398.400 41.600 397.014 41.600 L 395.627 41.600 395.514 37.300 L 395.400 33.000 394.100 32.875 L 392.800 32.749 392.800 29.975 L 392.800 27.200 391.400 27.200 C 390.067 27.200,390.000 27.133,390.000 25.800 C 390.000 24.467,389.933 24.400,388.600 24.400 C 387.267 24.400,387.200 24.333,387.200 23.000 C 387.200 21.672,387.130 21.600,385.825 21.600 C 384.570 21.600,384.440 21.488,384.325 20.313 C 384.223 19.257,383.974 18.961,382.945 18.668 C 382.017 18.403,381.597 17.983,381.332 17.055 C 381.039 16.026,380.743 15.777,379.687 15.675 C 378.512 15.560,378.400 15.430,378.400 14.175 C 378.400 12.870,378.328 12.800,377.000 12.800 C 375.667 12.800,375.600 12.733,375.600 11.400 L 375.600 10.000 372.800 10.000 L 370.000 10.000 370.000 8.600 L 370.000 7.200 365.845 7.200 L 361.689 7.200 361.426 5.800 L 361.164 4.400 200.000 4.400 L 38.836 4.400 38.574 5.800 M105.511 59.823 C 106.000 60.165,106.400 60.687,106.400 60.983 C 106.400 61.279,107.030 61.893,107.800 62.347 C 108.570 62.801,109.200 63.444,109.200 63.776 C 109.200 64.108,109.748 64.663,110.417 65.009 C 111.087 65.355,111.803 66.083,112.010 66.626 C 112.217 67.170,112.830 67.783,113.374 67.990 C 113.917 68.197,114.645 68.913,114.991 69.583 C 115.337 70.252,115.892 70.800,116.224 70.800 C 116.556 70.800,117.199 71.430,117.653 72.200 C 118.107 72.970,118.737 73.600,119.053 73.600 C 119.369 73.600,119.999 74.230,120.453 75.000 C 120.907 75.770,121.407 76.400,121.563 76.400 C 123.231 76.400,123.394 77.235,123.600 86.867 L 123.800 96.200 133.133 96.400 C 142.765 96.606,143.600 96.769,143.600 98.437 C 143.600 98.593,144.230 99.093,145.000 99.547 C 145.770 100.001,146.400 100.631,146.400 100.947 C 146.400 101.263,147.030 101.893,147.800 102.347 C 148.570 102.801,149.200 103.444,149.200 103.776 C 149.200 104.108,149.748 104.663,150.417 105.009 C 151.087 105.355,151.803 106.083,152.010 106.626 C 152.217 107.170,152.830 107.783,153.374 107.990 C 153.917 108.197,154.645 108.913,154.991 109.583 C 155.337 110.252,155.892 110.800,156.224 110.800 C 156.556 110.800,157.199 111.430,157.653 112.200 C 158.107 112.970,158.709 113.600,158.991 113.600 C 160.394 113.600,160.597 114.783,160.800 124.160 L 161.000 133.400 170.318 133.507 L 179.636 133.615 180.447 134.990 C 180.893 135.746,181.607 136.475,182.033 136.611 C 182.460 136.746,183.075 137.371,183.400 138.000 C 183.725 138.629,184.355 139.259,184.800 139.400 C 185.245 139.541,185.863 140.149,186.174 140.750 C 186.485 141.352,187.207 142.057,187.778 142.317 C 188.349 142.577,188.989 143.246,189.201 143.802 C 189.412 144.359,190.042 144.988,190.600 145.200 C 191.158 145.412,191.788 146.042,192.000 146.600 C 192.212 147.158,192.821 147.780,193.354 147.982 C 194.935 148.584,194.992 148.953,195.200 160.000 L 195.400 170.600 197.200 170.600 L 199.000 170.600 199.200 152.761 C 199.360 138.509,199.510 134.790,199.946 134.265 C 200.434 133.677,202.355 133.597,218.346 133.504 L 236.200 133.400 236.400 115.520 C 236.556 101.601,236.715 97.524,237.120 97.120 C 237.524 96.715,241.601 96.556,255.520 96.400 L 273.400 96.200 273.497 78.400 C 273.593 60.816,273.605 60.591,274.442 59.900 C 275.228 59.250,277.053 59.200,299.955 59.200 C 326.006 59.200,326.400 59.227,326.400 60.983 C 326.400 61.279,327.030 61.893,327.800 62.347 C 328.570 62.801,329.200 63.444,329.200 63.776 C 329.200 64.108,329.748 64.663,330.417 65.009 C 331.087 65.355,331.803 66.083,332.010 66.626 C 332.217 67.170,332.830 67.783,333.374 67.990 C 333.917 68.197,334.645 68.913,334.991 69.583 C 335.337 70.252,335.892 70.800,336.224 70.800 C 336.556 70.800,337.199 71.430,337.653 72.200 C 338.107 72.970,338.737 73.600,339.053 73.600 C 339.369 73.600,339.999 74.230,340.453 75.000 C 340.907 75.770,341.441 76.400,341.640 76.400 C 341.838 76.400,342.360 76.760,342.800 77.200 C 343.626 78.026,344.116 349.809,343.294 351.040 C 342.424 352.343,341.282 352.400,315.852 352.400 C 289.252 352.400,288.670 352.362,288.000 350.600 C 287.788 350.042,287.170 349.417,286.626 349.210 C 286.083 349.003,285.355 348.287,285.009 347.617 C 284.663 346.948,284.108 346.400,283.776 346.400 C 283.444 346.400,282.806 345.778,282.357 345.018 C 281.909 344.257,281.184 343.522,280.747 343.383 C 280.309 343.244,279.747 342.683,279.498 342.135 C 279.248 341.588,278.552 340.885,277.950 340.574 C 277.349 340.263,276.746 339.660,276.611 339.233 C 276.475 338.807,275.743 338.091,274.982 337.643 C 274.222 337.194,273.600 336.569,273.600 336.253 C 273.600 335.937,272.970 335.307,272.200 334.853 L 270.800 334.027 270.800 270.662 C 270.800 217.600,270.711 207.224,270.254 206.845 C 269.861 206.519,264.885 206.421,252.554 206.496 L 235.400 206.600 235.200 278.686 C 235.010 347.197,234.965 350.807,234.286 351.486 C 233.071 352.701,181.803 352.790,180.265 351.579 C 179.679 351.119,179.199 350.530,179.197 350.271 C 179.196 350.012,178.639 349.483,177.959 349.097 C 177.279 348.710,176.633 348.049,176.524 347.629 C 176.414 347.209,175.816 346.655,175.196 346.398 C 174.576 346.142,173.858 345.424,173.602 344.804 C 173.345 344.184,172.791 343.586,172.371 343.476 C 171.951 343.367,171.292 342.728,170.907 342.058 C 170.522 341.387,169.824 340.742,169.354 340.624 C 168.885 340.507,168.283 339.884,168.017 339.240 C 167.737 338.566,167.125 337.968,166.573 337.829 C 166.046 337.697,165.343 337.064,165.012 336.423 C 164.680 335.781,164.063 335.147,163.641 335.013 C 162.225 334.564,162.201 333.593,162.000 270.000 L 161.800 206.600 152.482 206.493 L 143.164 206.385 142.353 205.010 C 141.907 204.254,141.184 203.522,140.747 203.383 C 140.309 203.244,139.747 202.683,139.498 202.135 C 139.248 201.588,138.552 200.885,137.950 200.574 C 137.349 200.263,136.746 199.660,136.611 199.233 C 136.475 198.807,135.743 198.091,134.982 197.643 C 134.222 197.194,133.600 196.556,133.600 196.224 C 133.600 195.892,133.052 195.337,132.383 194.991 C 131.713 194.645,130.997 193.917,130.790 193.374 C 130.583 192.830,129.958 192.212,129.400 192.000 C 128.842 191.788,128.208 191.146,127.990 190.575 C 126.629 186.993,126.604 188.227,126.400 270.513 C 126.238 335.981,126.102 351.258,125.680 351.680 C 125.067 352.292,70.874 352.560,69.293 351.959 C 68.794 351.769,68.212 351.158,68.000 350.600 C 67.788 350.042,67.170 349.417,66.626 349.210 C 66.083 349.003,65.355 348.287,65.009 347.617 C 64.663 346.948,64.108 346.400,63.776 346.400 C 63.444 346.400,62.806 345.778,62.357 345.018 C 61.909 344.257,61.184 343.522,60.747 343.383 C 60.309 343.244,59.747 342.683,59.498 342.135 C 59.248 341.588,58.552 340.885,57.950 340.574 C 57.349 340.263,56.746 339.660,56.611 339.233 C 56.475 338.807,55.743 338.091,54.982 337.643 C 54.222 337.194,53.600 336.569,53.600 336.253 C 53.600 335.937,52.970 335.307,52.200 334.853 L 50.800 334.027 50.800 197.236 L 50.800 60.445 51.689 59.823 C 53.037 58.879,104.163 58.879,105.511 59.823 M64.052 69.738 C 63.716 70.142,63.625 103.193,63.699 197.442 L 63.800 324.600 81.400 324.600 L 99.000 324.600 99.200 233.920 C 99.362 160.290,99.498 143.142,99.920 142.720 C 100.322 142.317,104.145 142.155,116.920 142.000 L 133.400 141.800 133.504 124.646 C 133.579 112.315,133.481 107.339,133.155 106.946 C 132.786 106.501,129.720 106.400,116.600 106.400 C 102.114 106.400,100.443 106.334,99.949 105.739 C 99.509 105.209,99.360 101.546,99.200 87.239 L 99.000 69.400 81.752 69.296 C 67.573 69.210,64.424 69.289,64.052 69.738 M284.084 69.676 C 283.720 70.040,283.600 74.489,283.600 87.618 C 283.600 104.023,283.556 105.116,282.869 105.738 C 282.211 106.333,280.365 106.400,264.717 106.400 C 250.484 106.400,247.215 106.500,246.845 106.946 C 246.519 107.339,246.421 112.315,246.496 124.646 L 246.600 141.800 264.480 142.000 C 278.404 142.156,282.476 142.315,282.880 142.720 C 283.302 143.142,283.438 160.286,283.600 233.920 L 283.800 324.600 301.400 324.600 L 319.000 324.600 319.000 197.000 L 319.000 69.400 301.784 69.296 C 288.727 69.217,284.451 69.309,284.084 69.676 M135.383 144.100 C 135.278 144.375,135.238 152.340,135.296 161.800 L 135.400 179.000 153.000 179.000 L 170.600 179.000 170.704 161.846 C 170.779 149.515,170.681 144.539,170.355 144.146 C 169.716 143.376,135.678 143.331,135.383 144.100 M209.648 144.142 C 209.318 144.540,209.220 149.439,209.296 161.846 L 209.400 179.000 227.000 179.000 L 244.600 179.000 244.600 161.400 L 244.600 143.800 227.352 143.696 C 213.105 143.610,210.025 143.687,209.648 144.142 M172.400 252.800 L 172.400 324.800 190.000 324.800 L 207.600 324.800 207.600 252.800 L 207.600 180.800 190.000 180.800 L 172.400 180.800 172.400 252.800 " stroke="none" fill="#006400" fill-rule="evenodd"></path><path id="path3" d="M51.689 59.823 L 50.800 60.445 50.800 197.236 L 50.800 334.027 52.200 334.853 C 52.970 335.307,53.600 335.937,53.600 336.253 C 53.600 336.569,54.222 337.194,54.982 337.643 C 55.743 338.091,56.475 338.807,56.611 339.233 C 56.746 339.660,57.349 340.263,57.950 340.574 C 58.552 340.885,59.248 341.588,59.498 342.135 C 59.747 342.683,60.309 343.244,60.747 343.383 C 61.184 343.522,61.909 344.257,62.357 345.018 C 62.806 345.778,63.444 346.400,63.776 346.400 C 64.108 346.400,64.663 346.948,65.009 347.617 C 65.355 348.287,66.083 349.003,66.626 349.210 C 67.170 349.417,67.788 350.042,68.000 350.600 C 68.212 351.158,68.794 351.769,69.293 351.959 C 70.874 352.560,125.067 352.292,125.680 351.680 C 126.102 351.258,126.238 335.981,126.400 270.513 C 126.604 188.227,126.629 186.993,127.990 190.575 C 128.208 191.146,128.842 191.788,129.400 192.000 C 129.958 192.212,130.583 192.830,130.790 193.374 C 130.997 193.917,131.713 194.645,132.383 194.991 C 133.052 195.337,133.600 195.892,133.600 196.224 C 133.600 196.556,134.222 197.194,134.982 197.643 C 135.743 198.091,136.475 198.807,136.611 199.233 C 136.746 199.660,137.349 200.263,137.950 200.574 C 138.552 200.885,139.248 201.588,139.498 202.135 C 139.747 202.683,140.309 203.244,140.747 203.383 C 141.184 203.522,141.907 204.254,142.353 205.010 L 143.164 206.385 152.482 206.493 L 161.800 206.600 162.000 270.000 C 162.201 333.593,162.225 334.564,163.641 335.013 C 164.063 335.147,164.680 335.781,165.012 336.423 C 165.343 337.064,166.046 337.697,166.573 337.829 C 167.125 337.968,167.737 338.566,168.017 339.240 C 168.283 339.884,168.885 340.507,169.354 340.624 C 169.824 340.742,170.522 341.387,170.907 342.058 C 171.292 342.728,171.951 343.367,172.371 343.476 C 172.791 343.586,173.345 344.184,173.602 344.804 C 173.858 345.424,174.576 346.142,175.196 346.398 C 175.816 346.655,176.414 347.209,176.524 347.629 C 176.633 348.049,177.279 348.710,177.959 349.097 C 178.639 349.483,179.196 350.012,179.197 350.271 C 179.199 350.530,179.679 351.119,180.265 351.579 C 181.803 352.790,233.071 352.701,234.286 351.486 C 234.965 350.807,235.010 347.197,235.200 278.686 L 235.400 206.600 252.554 206.496 C 264.885 206.421,269.861 206.519,270.254 206.845 C 270.711 207.224,270.800 217.600,270.800 270.662 L 270.800 334.027 272.200 334.853 C 272.970 335.307,273.600 335.937,273.600 336.253 C 273.600 336.569,274.222 337.194,274.982 337.643 C 275.743 338.091,276.475 338.807,276.611 339.233 C 276.746 339.660,277.349 340.263,277.950 340.574 C 278.552 340.885,279.248 341.588,279.498 342.135 C 279.747 342.683,280.309 343.244,280.747 343.383 C 281.184 343.522,281.909 344.257,282.357 345.018 C 282.806 345.778,283.444 346.400,283.776 346.400 C 284.108 346.400,284.663 346.948,285.009 347.617 C 285.355 348.287,286.083 349.003,286.626 349.210 C 287.170 349.417,287.788 350.042,288.000 350.600 C 288.670 352.362,289.252 352.400,315.852 352.400 C 341.282 352.400,342.424 352.343,343.294 351.040 C 344.116 349.809,343.626 78.026,342.800 77.200 C 342.360 76.760,341.838 76.400,341.640 76.400 C 341.441 76.400,340.907 75.770,340.453 75.000 C 339.999 74.230,339.369 73.600,339.053 73.600 C 338.737 73.600,338.107 72.970,337.653 72.200 C 337.199 71.430,336.556 70.800,336.224 70.800 C 335.892 70.800,335.337 70.252,334.991 69.583 C 334.645 68.913,333.917 68.197,333.374 67.990 C 332.830 67.783,332.217 67.170,332.010 66.626 C 331.803 66.083,331.087 65.355,330.417 65.009 C 329.748 64.663,329.200 64.108,329.200 63.776 C 329.200 63.444,328.570 62.801,327.800 62.347 C 327.030 61.893,326.400 61.279,326.400 60.983 C 326.400 59.227,326.006 59.200,299.955 59.200 C 277.053 59.200,275.228 59.250,274.442 59.900 C 273.605 60.591,273.593 60.816,273.497 78.400 L 273.400 96.200 255.520 96.400 C 241.601 96.556,237.524 96.715,237.120 97.120 C 236.715 97.524,236.556 101.601,236.400 115.520 L 236.200 133.400 218.346 133.504 C 202.355 133.597,200.434 133.677,199.946 134.265 C 199.510 134.790,199.360 138.509,199.200 152.761 L 199.000 170.600 197.200 170.600 L 195.400 170.600 195.200 160.000 C 194.992 148.953,194.935 148.584,193.354 147.982 C 192.821 147.780,192.212 147.158,192.000 146.600 C 191.788 146.042,191.158 145.412,190.600 145.200 C 190.042 144.988,189.412 144.359,189.201 143.802 C 188.989 143.246,188.349 142.577,187.778 142.317 C 187.207 142.057,186.485 141.352,186.174 140.750 C 185.863 140.149,185.245 139.541,184.800 139.400 C 184.355 139.259,183.725 138.629,183.400 138.000 C 183.075 137.371,182.460 136.746,182.033 136.611 C 181.607 136.475,180.893 135.746,180.447 134.990 L 179.636 133.615 170.318 133.507 L 161.000 133.400 160.800 124.160 C 160.597 114.783,160.394 113.600,158.991 113.600 C 158.709 113.600,158.107 112.970,157.653 112.200 C 157.199 111.430,156.556 110.800,156.224 110.800 C 155.892 110.800,155.337 110.252,154.991 109.583 C 154.645 108.913,153.917 108.197,153.374 107.990 C 152.830 107.783,152.217 107.170,152.010 106.626 C 151.803 106.083,151.087 105.355,150.417 105.009 C 149.748 104.663,149.200 104.108,149.200 103.776 C 149.200 103.444,148.570 102.801,147.800 102.347 C 147.030 101.893,146.400 101.263,146.400 100.947 C 146.400 100.631,145.770 100.001,145.000 99.547 C 144.230 99.093,143.600 98.593,143.600 98.437 C 143.600 96.769,142.765 96.606,133.133 96.400 L 123.800 96.200 123.600 86.867 C 123.394 77.235,123.231 76.400,121.563 76.400 C 121.407 76.400,120.907 75.770,120.453 75.000 C 119.999 74.230,119.369 73.600,119.053 73.600 C 118.737 73.600,118.107 72.970,117.653 72.200 C 117.199 71.430,116.556 70.800,116.224 70.800 C 115.892 70.800,115.337 70.252,114.991 69.583 C 114.645 68.913,113.917 68.197,113.374 67.990 C 112.830 67.783,112.217 67.170,112.010 66.626 C 111.803 66.083,111.087 65.355,110.417 65.009 C 109.748 64.663,109.200 64.108,109.200 63.776 C 109.200 63.444,108.570 62.801,107.800 62.347 C 107.030 61.893,106.400 61.279,106.400 60.983 C 106.400 59.219,106.105 59.200,78.600 59.200 C 55.695 59.200,52.472 59.275,51.689 59.823 M105.193 61.781 C 105.398 62.320,106.113 63.045,106.783 63.391 C 107.452 63.737,108.000 64.292,108.000 64.624 C 108.000 64.956,108.622 65.594,109.382 66.043 C 110.143 66.491,110.878 67.216,111.017 67.653 C 111.156 68.091,111.703 68.646,112.232 68.888 C 112.762 69.129,113.550 69.928,113.984 70.663 C 114.418 71.398,115.031 72.000,115.347 72.000 C 115.663 72.000,116.293 72.630,116.747 73.400 C 117.201 74.170,117.844 74.800,118.176 74.800 C 118.508 74.800,119.053 75.330,119.388 75.978 C 119.723 76.625,120.493 77.392,121.099 77.683 L 122.200 78.210 122.307 87.462 C 122.389 94.500,122.540 96.818,122.939 97.149 C 123.274 97.428,126.767 97.623,132.627 97.692 L 141.790 97.800 142.317 98.901 C 142.608 99.507,143.375 100.277,144.022 100.612 C 144.670 100.947,145.200 101.492,145.200 101.824 C 145.200 102.156,145.830 102.799,146.600 103.253 C 147.370 103.707,148.000 104.334,148.000 104.645 C 148.000 104.957,148.560 105.552,149.245 105.969 C 149.929 106.385,150.698 107.144,150.952 107.655 C 151.207 108.166,151.834 108.793,152.345 109.048 C 152.856 109.302,153.605 110.055,154.010 110.720 C 154.414 111.385,155.090 112.038,155.512 112.172 C 155.933 112.306,156.483 112.865,156.733 113.414 C 156.984 113.963,157.641 114.618,158.194 114.870 L 159.200 115.328 159.200 124.175 C 159.200 135.951,158.073 134.800,169.609 134.800 C 178.500 134.800,178.785 134.825,179.220 135.638 C 179.796 136.714,189.408 146.400,189.900 146.400 C 190.104 146.400,190.480 146.858,190.736 147.419 C 190.991 147.979,191.739 148.744,192.397 149.119 L 193.595 149.800 193.597 160.011 C 193.600 172.050,193.587 172.000,196.946 172.000 C 200.855 172.000,200.572 173.403,200.800 152.933 L 201.000 135.000 218.800 134.800 C 228.590 134.690,236.825 134.454,237.100 134.276 C 237.488 134.026,237.600 129.974,237.600 116.256 C 237.600 103.026,237.721 98.439,238.080 98.080 C 238.439 97.721,243.026 97.600,256.256 97.600 C 269.974 97.600,274.026 97.488,274.276 97.100 C 274.454 96.825,274.690 88.590,274.800 78.800 L 275.000 61.000 299.909 60.897 L 324.817 60.794 325.192 61.778 C 325.397 62.319,326.113 63.045,326.783 63.391 C 327.452 63.737,328.000 64.289,328.000 64.616 C 328.000 64.944,328.560 65.552,329.245 65.969 C 329.929 66.385,330.698 67.144,330.952 67.655 C 331.207 68.166,331.834 68.793,332.345 69.048 C 332.856 69.302,333.615 70.071,334.031 70.755 C 334.448 71.440,335.056 72.000,335.384 72.000 C 335.711 72.000,336.263 72.548,336.609 73.217 C 336.955 73.887,337.660 74.627,338.175 74.861 C 338.690 75.096,339.309 75.721,339.550 76.250 C 339.791 76.779,340.418 77.408,340.943 77.647 C 341.710 77.996,341.947 78.488,342.146 80.141 C 342.655 84.376,342.433 349.807,341.920 350.320 C 341.557 350.683,335.152 350.800,315.542 350.800 L 289.644 350.800 289.122 349.712 C 288.835 349.113,288.178 348.413,287.663 348.156 C 287.147 347.899,286.385 347.129,285.969 346.445 C 285.552 345.760,284.944 345.200,284.616 345.200 C 284.289 345.200,283.737 344.652,283.391 343.983 C 283.045 343.313,282.340 342.573,281.825 342.339 C 281.310 342.104,280.691 341.479,280.450 340.950 C 280.209 340.421,279.579 339.791,279.050 339.550 C 278.521 339.309,277.896 338.690,277.661 338.175 C 277.427 337.660,276.687 336.955,276.017 336.609 C 275.348 336.263,274.800 335.708,274.800 335.376 C 274.800 335.044,274.170 334.401,273.400 333.947 L 272.000 333.121 272.000 269.892 C 272.000 211.618,271.948 206.606,271.338 205.931 C 270.366 204.858,235.237 204.791,234.349 205.861 C 233.890 206.415,233.767 218.308,233.600 278.561 L 233.400 350.600 207.212 350.600 L 181.024 350.600 180.556 349.663 C 180.299 349.147,179.545 348.395,178.880 347.990 C 178.215 347.586,177.562 346.910,177.428 346.488 C 177.294 346.067,176.735 345.517,176.186 345.267 C 175.637 345.016,174.991 344.379,174.750 343.850 C 174.509 343.321,173.890 342.696,173.375 342.461 C 172.860 342.227,172.155 341.487,171.809 340.817 C 171.463 340.148,170.908 339.600,170.576 339.600 C 170.244 339.600,169.606 338.978,169.157 338.218 C 168.709 337.457,167.984 336.722,167.547 336.583 C 167.109 336.444,166.547 335.883,166.298 335.335 C 166.048 334.788,165.339 334.079,164.722 333.760 L 163.600 333.179 163.600 270.079 C 163.600 213.615,163.535 206.884,162.977 206.089 C 162.365 205.214,162.207 205.200,153.188 205.200 L 144.021 205.200 143.391 203.983 C 143.045 203.313,142.340 202.573,141.825 202.339 C 141.310 202.104,140.691 201.479,140.450 200.950 C 140.209 200.421,139.579 199.791,139.050 199.550 C 138.521 199.309,137.896 198.690,137.661 198.175 C 137.427 197.660,136.687 196.955,136.017 196.609 C 135.348 196.263,134.800 195.711,134.800 195.384 C 134.800 195.056,134.240 194.448,133.555 194.031 C 132.871 193.615,132.102 192.856,131.848 192.345 C 131.593 191.834,130.966 191.207,130.455 190.952 C 129.944 190.698,129.185 189.929,128.769 189.245 C 127.925 187.857,127.025 187.672,125.931 188.662 C 125.227 189.299,125.200 192.337,125.200 269.582 C 125.200 331.472,125.090 349.950,124.720 350.320 C 124.356 350.684,117.640 350.800,96.942 350.800 L 69.644 350.800 69.122 349.712 C 68.835 349.113,68.178 348.413,67.663 348.156 C 67.147 347.899,66.385 347.129,65.969 346.445 C 65.552 345.760,64.944 345.200,64.616 345.200 C 64.289 345.200,63.737 344.652,63.391 343.983 C 63.045 343.313,62.340 342.573,61.825 342.339 C 61.310 342.104,60.691 341.479,60.450 340.950 C 60.209 340.421,59.579 339.791,59.050 339.550 C 58.521 339.309,57.896 338.690,57.661 338.175 C 57.427 337.660,56.687 336.955,56.017 336.609 C 55.348 336.263,54.800 335.708,54.800 335.376 C 54.800 335.044,54.170 334.401,53.400 333.947 L 52.000 333.121 52.000 197.227 C 52.000 122.486,52.120 61.213,52.267 61.067 C 52.413 60.920,64.298 60.800,78.677 60.800 L 104.820 60.800 105.193 61.781 M63.029 68.629 C 62.460 69.197,62.400 81.422,62.400 197.206 L 62.400 325.155 63.289 325.777 C 64.891 326.900,98.808 326.696,99.838 325.558 C 100.581 324.737,100.605 322.502,100.800 234.258 L 101.000 143.800 117.200 143.800 L 133.400 143.800 133.504 161.442 C 133.606 178.772,133.623 179.097,134.446 179.842 C 135.234 180.555,136.325 180.612,152.942 180.800 L 170.600 181.000 170.800 253.132 C 170.996 323.954,171.014 325.275,171.776 325.832 C 172.930 326.675,207.070 326.675,208.224 325.832 C 208.986 325.275,209.004 323.954,209.200 253.132 L 209.400 181.000 227.058 180.800 C 243.675 180.612,244.766 180.555,245.554 179.842 C 246.377 179.097,246.394 178.772,246.496 161.442 L 246.600 143.800 263.954 143.696 C 276.433 143.621,281.461 143.719,281.854 144.045 C 282.312 144.425,282.400 158.980,282.400 234.826 L 282.400 325.155 283.289 325.777 C 284.061 326.318,286.485 326.400,301.660 326.400 L 319.142 326.400 319.973 325.344 L 320.804 324.287 320.702 196.711 C 320.601 70.948,320.589 69.127,319.824 68.568 C 318.598 67.672,283.928 67.729,283.029 68.629 C 282.476 69.181,282.400 71.381,282.400 86.749 C 282.400 99.820,282.279 104.361,281.920 104.720 C 281.561 105.079,277.020 105.200,263.949 105.200 C 248.581 105.200,246.381 105.276,245.829 105.829 C 245.276 106.381,245.200 108.581,245.200 123.949 C 245.200 137.020,245.079 141.561,244.720 141.920 C 244.362 142.278,239.829 142.402,226.820 142.406 C 216.549 142.410,209.154 142.568,208.800 142.791 C 208.286 143.116,208.171 145.745,208.000 161.085 L 207.800 179.000 190.000 179.000 L 172.200 179.000 172.000 161.085 C 171.829 145.745,171.714 143.116,171.200 142.791 C 170.846 142.568,163.451 142.410,153.180 142.406 C 140.171 142.402,135.638 142.278,135.280 141.920 C 134.922 141.562,134.798 137.029,134.794 124.020 C 134.790 113.750,134.632 106.354,134.409 106.000 C 134.085 105.488,131.610 105.371,117.515 105.200 L 101.000 105.000 100.800 87.067 C 100.609 69.901,100.567 69.111,99.824 68.567 C 98.598 67.672,63.928 67.729,63.029 68.629 M99.200 87.239 C 99.360 101.546,99.509 105.209,99.949 105.739 C 100.443 106.334,102.114 106.400,116.600 106.400 C 129.720 106.400,132.786 106.501,133.155 106.946 C 133.481 107.339,133.579 112.315,133.504 124.646 L 133.400 141.800 116.920 142.000 C 104.145 142.155,100.322 142.317,99.920 142.720 C 99.498 143.142,99.362 160.290,99.200 233.920 L 99.000 324.600 81.400 324.600 L 63.800 324.600 63.699 197.442 C 63.625 103.193,63.716 70.142,64.052 69.738 C 64.424 69.289,67.573 69.210,81.752 69.296 L 99.000 69.400 99.200 87.239 M319.000 197.000 L 319.000 324.600 301.400 324.600 L 283.800 324.600 283.600 233.920 C 283.438 160.286,283.302 143.142,282.880 142.720 C 282.476 142.315,278.404 142.156,264.480 142.000 L 246.600 141.800 246.496 124.646 C 246.421 112.315,246.519 107.339,246.845 106.946 C 247.215 106.500,250.484 106.400,264.717 106.400 C 280.365 106.400,282.211 106.333,282.869 105.738 C 283.556 105.116,283.600 104.023,283.600 87.618 C 283.600 74.489,283.720 70.040,284.084 69.676 C 284.451 69.309,288.727 69.217,301.784 69.296 L 319.000 69.400 319.000 197.000 M170.355 144.146 C 170.681 144.539,170.779 149.515,170.704 161.846 L 170.600 179.000 153.000 179.000 L 135.400 179.000 135.296 161.800 C 135.238 152.340,135.278 144.375,135.383 144.100 C 135.678 143.331,169.716 143.376,170.355 144.146 M244.600 161.400 L 244.600 179.000 227.000 179.000 L 209.400 179.000 209.296 161.846 C 209.220 149.439,209.318 144.540,209.648 144.142 C 210.025 143.687,213.105 143.610,227.352 143.696 L 244.600 143.800 244.600 161.400 M207.600 252.800 L 207.600 324.800 190.000 324.800 L 172.400 324.800 172.400 252.800 L 172.400 180.800 190.000 180.800 L 207.600 180.800 207.600 252.800 " stroke="none" fill="#73aa73" fill-rule="evenodd"></path><path id="path4" d="" stroke="none" fill="#00ff00" fill-rule="evenodd"></path></g></svg>